<svg width="20" height="20" viewBox="0 0 20 20" fill="none" xmlns="http://www.w3.org/2000/svg">
<path d="M16.7099 6.20998C16.6169 6.11625 16.5063 6.04186 16.3845 5.99109C16.2626 5.94032 16.1319 5.91418 15.9999 5.91418C15.8679 5.91418 15.7372 5.94032 15.6153 5.99109C15.4934 6.04186 15.3828 6.11625 15.2899 6.20998L10.7099 10.79C10.6169 10.8837 10.5063 10.9581 10.3845 11.0089C10.2626 11.0596 10.1319 11.0858 9.99988 11.0858C9.86787 11.0858 9.73716 11.0596 9.6153 11.0089C9.49344 10.9581 9.38284 10.8837 9.28988 10.79L4.70988 6.20998C4.61691 6.11625 4.50631 6.04186 4.38445 5.99109C4.26259 5.94032 4.13189 5.91418 3.99988 5.91418C3.86787 5.91418 3.73716 5.94032 3.6153 5.99109C3.49344 6.04186 3.38284 6.11625 3.28988 6.20998C3.10363 6.39734 2.99908 6.6508 2.99908 6.91498C2.99908 7.17917 3.10363 7.43262 3.28988 7.61998L7.87988 12.21C8.44238 12.7718 9.20488 13.0873 9.99988 13.0873C10.7949 13.0873 11.5574 12.7718 12.1199 12.21L16.7099 7.61998C16.8961 7.43262 17.0007 7.17917 17.0007 6.91498C17.0007 6.6508 16.8961 6.39734 16.7099 6.20998V6.20998Z" fill="white"/>
</svg>
