<svg width="43" height="46" viewBox="0 0 43 46" fill="none" xmlns="http://www.w3.org/2000/svg">
<path d="M13.5625 6.8989C15.0385 5.42645 17.173 4.82574 19.2003 5.31229L31.8289 8.34313C33.9681 8.85654 35.6548 10.4995 36.2242 12.6245L39.2939 24.0806C39.8632 26.2056 39.224 28.4718 37.6281 29.986L28.2068 38.9251C26.6944 40.3601 24.5455 40.9072 22.531 40.37L10.7281 37.2225C8.65441 36.6695 7.034 35.051 6.47853 32.978L3.35659 21.3268C2.80113 19.2538 3.39521 17.0419 4.91458 15.5262L13.5625 6.8989Z" fill="url(#paint0_linear_158_1909)"/>
<g clip-path="url(#clip0_158_1909)">
<path d="M28.5206 17.0058L26.7929 17.4688L27.516 20.1672C28.7736 19.8191 29.5355 18.574 29.2159 17.3812C29.1383 17.0918 28.827 16.9237 28.5206 17.0058Z" fill="#FFA800"/>
<path d="M22.1418 15.7155C20.6026 16.128 19.6672 17.6462 20.0568 19.0999L20.85 22.0603L12.9936 24.1654C12.6872 24.2476 12.5016 24.5488 12.5792 24.8382C13.5556 28.4821 17.4888 30.6056 21.3471 29.5718C25.2053 28.538 27.5499 24.7324 26.5735 21.0885L25.6398 17.604C25.2503 16.1502 23.6811 15.3031 22.1418 15.7155ZM24.1325 24.3895C23.5857 25.8526 22.3264 26.9761 20.7638 27.3948C19.2011 27.8135 17.5488 27.4702 16.3437 26.4765C16.0028 26.1955 16.1412 25.6553 16.5851 25.5364L23.4533 23.6961C23.8967 23.5772 24.2873 23.9752 24.1325 24.3895ZM23.5098 18.7483C23.1044 18.8569 22.6926 18.6346 22.59 18.2517C22.4875 17.8689 22.7329 17.4704 23.1383 17.3618C23.5437 17.2532 23.9555 17.4755 24.0581 17.8584C24.1607 18.2412 23.9152 18.6397 23.5098 18.7483Z" fill="#FBFBFB"/>
<rect x="15.2552" y="25.2627" width="9.675" height="3.6125" transform="rotate(-15 15.2552 25.2627)" fill="#FBFBFB"/>
</g>
<defs>
<linearGradient id="paint0_linear_158_1909" x1="12.5" y1="46" x2="35" y2="3.5" gradientUnits="userSpaceOnUse">
<stop stop-color="#272B31"/>
<stop offset="1" stop-color="#272B31" stop-opacity="0.92"/>
</linearGradient>
<clipPath id="clip0_158_1909">
<rect width="18" height="17" fill="white" transform="translate(10.445 16.8716) rotate(-15)"/>
</clipPath>
</defs>
</svg>
