<svg width="24" height="24" viewBox="0 0 24 24" fill="none" xmlns="http://www.w3.org/2000/svg">
<path d="M9 3.19995H12L14 5.19995H19C19.5304 5.19995 20.0391 5.41066 20.4142 5.78574C20.7893 6.16081 21 6.66952 21 7.19995V14.2C21 14.7304 20.7893 15.2391 20.4142 15.6142C20.0391 15.9892 19.5304 16.2 19 16.2H9C8.46957 16.2 7.96086 15.9892 7.58579 15.6142C7.21071 15.2391 7 14.7304 7 14.2V5.19995C7 4.66952 7.21071 4.16081 7.58579 3.78574C7.96086 3.41066 8.46957 3.19995 9 3.19995Z" stroke="#191B1F" stroke-width="2" stroke-linecap="round" stroke-linejoin="round"/>
<path d="M17 16.2V18.2C17 18.7304 16.7893 19.2391 16.4142 19.6142C16.0391 19.9892 15.5304 20.2 15 20.2H5C4.46957 20.2 3.96086 19.9892 3.58579 19.6142C3.21071 19.2391 3 18.7304 3 18.2V9.19995C3 8.66952 3.21071 8.16081 3.58579 7.78574C3.96086 7.41067 4.46957 7.19995 5 7.19995H7" stroke="#191B1F" stroke-width="2" stroke-linecap="round" stroke-linejoin="round"/>
</svg>
