<svg width="20" height="20" viewBox="0 0 20 20" fill="none" xmlns="http://www.w3.org/2000/svg">
<path fill-rule="evenodd" clip-rule="evenodd" d="M7.29171 5.83333C7.29171 4.34517 8.51187 3.125 10 3.125C10.7265 3.125 11.4069 3.45739 11.8915 3.94195C12.376 4.42651 12.7084 5.10679 12.7084 5.83333V6.04167H7.29171V5.83333ZM6.04171 6.09122V5.83333C6.04171 3.65483 7.82153 1.875 10 1.875C11.1069 1.875 12.0932 2.37596 12.7753 3.05807C13.4575 3.74018 13.9584 4.72654 13.9584 5.83333V6.09122C15.8423 6.39278 17.2917 8.03404 17.2917 10V15C17.2917 16.7618 15.9285 18.125 14.1667 18.125H5.83337C4.05807 18.125 2.70837 16.6649 2.70837 15V10C2.70837 8.03404 4.15782 6.39278 6.04171 6.09122ZM3.95837 10C3.95837 8.51183 5.17855 7.29167 6.66671 7.29167H13.3334C14.8215 7.29167 16.0417 8.51183 16.0417 10V15C16.0417 16.0715 15.2382 16.875 14.1667 16.875H5.83337C4.77535 16.875 3.95837 16.0017 3.95837 15V10Z" fill="black"/>
<path fill-rule="evenodd" clip-rule="evenodd" d="M10 13.3333C10.9205 13.3333 11.6667 12.5872 11.6667 11.6667C11.6667 10.7462 10.9205 10 10 10C9.07954 10 8.33337 10.7462 8.33337 11.6667C8.33337 12.5872 9.07954 13.3333 10 13.3333Z" fill="black"/>
</svg>
