<svg width="20" height="20" viewBox="0 0 20 20" fill="none" xmlns="http://www.w3.org/2000/svg">
<path d="M7.88787 17.9417C8.26987 18.2145 8.80074 18.1261 9.0736 17.7441C9.34645 17.3621 9.25797 16.8312 8.87597 16.5583L7.88787 17.9417ZM13.1834 6.35077C13.1834 6.82021 13.5639 7.20077 14.0334 7.20077C14.5028 7.20077 14.8834 6.82021 14.8834 6.35077H13.1834ZM8.16013 2.78106L8.39364 3.59836L8.16013 2.78106ZM8.60372 2.78106L8.83723 1.96377L8.83723 1.96377L8.60372 2.78106ZM2.73047 9.05848L1.88047 9.05848L2.73047 9.05848ZM6.11134 15.6282L5.61729 16.3198L5.61729 16.3198L6.11134 15.6282ZM13.4478 4.16509L13.2143 4.98239L13.2143 4.98239L13.4478 4.16509ZM3.31602 4.16509L3.08251 3.3478L3.31602 4.16509ZM3.58047 9.05848L3.58047 4.94138L1.88047 4.94138L1.88047 9.05848L3.58047 9.05848ZM8.87597 16.5583L6.6054 14.9365L5.61729 16.3198L7.88787 17.9417L8.87597 16.5583ZM3.54954 4.98239L8.39364 3.59836L7.92661 1.96377L3.08251 3.3478L3.54954 4.98239ZM8.3702 3.59836L13.2143 4.98239L13.6813 3.3478L8.83723 1.96377L8.3702 3.59836ZM13.1834 4.94138V6.35077H14.8834V4.94138H13.1834ZM14.7981 10.7912V12.4059H16.4981V10.7912H14.7981ZM15.6481 11.5559H12.4187V13.2559H15.6481V11.5559ZM13.2687 12.4059V10.7912H11.5687V12.4059H13.2687ZM16.4128 14.0206V15.6353H18.1128V14.0206H16.4128ZM15.6481 16.4H12.4187V18.1H15.6481V16.4ZM11.654 15.6353V14.0206H9.95397V15.6353H11.654ZM12.4187 16.4C11.9963 16.4 11.654 16.0576 11.654 15.6353H9.95397C9.95397 16.9965 11.0575 18.1 12.4187 18.1V16.4ZM16.4128 15.6353C16.4128 16.0576 16.0704 16.4 15.6481 16.4V18.1C17.0093 18.1 18.1128 16.9965 18.1128 15.6353H16.4128ZM15.6481 13.2559C16.0704 13.2559 16.4128 13.5983 16.4128 14.0206H18.1128C18.1128 12.6594 17.0093 11.5559 15.6481 11.5559V13.2559ZM12.4187 11.5559C11.0575 11.5559 9.95397 12.6594 9.95397 14.0206H11.654C11.654 13.5983 11.9963 13.2559 12.4187 13.2559V11.5559ZM14.0334 10.0265C14.4557 10.0265 14.7981 10.3689 14.7981 10.7912H16.4981C16.4981 9.42998 15.3946 8.3265 14.0334 8.3265V10.0265ZM14.0334 8.3265C12.6722 8.3265 11.5687 9.42998 11.5687 10.7912H13.2687C13.2687 10.3689 13.611 10.0265 14.0334 10.0265V8.3265ZM8.39364 3.59836C8.38598 3.60055 8.37786 3.60055 8.3702 3.59836L8.83723 1.96377C8.53965 1.87874 8.2242 1.87874 7.92661 1.96377L8.39364 3.59836ZM1.88047 9.05848C1.88047 11.9403 3.27223 14.6448 5.61729 16.3198L6.6054 14.9365C4.70709 13.5806 3.58047 11.3913 3.58047 9.05848L1.88047 9.05848ZM13.2143 4.98239C13.196 4.97716 13.1834 4.96042 13.1834 4.94138H14.8834C14.8834 4.2014 14.3928 3.55108 13.6813 3.3478L13.2143 4.98239ZM3.58047 4.94138C3.58047 4.96042 3.56785 4.97716 3.54954 4.98239L3.08251 3.3478C2.37101 3.55108 1.88047 4.2014 1.88047 4.94138L3.58047 4.94138Z" fill="#656976"/>
</svg>
